{
	"asset":{
		"generator":"Khronos glTF Blender I/O v3.6.27",
		"version":"2.0"
	},
	"scene":0,
	"scenes":[
		{
			"name":"Scene",
			"nodes":[
				0,
				1,
				2,
				3,
				4
			]
		}
	],
	"nodes":[
		{
			"mesh":0,
			"name":"Object_2",
			"rotation":[
				-0.70710688829422,
				0,
				0,
				0.7071066498756409
			],
			"translation":[
				0.006181240081787109,
				0.026574954390525818,
				0.001538991928100586
			]
		},
		{
			"mesh":1,
			"name":"Object_3",
			"rotation":[
				-0.70710688829422,
				0,
				0,
				0.7071066498756409
			],
			"translation":[
				-0.04310715198516846,
				0.03601840138435364,
				-0.07607543468475342
			]
		},
		{
			"mesh":2,
			"name":"Object_4",
			"rotation":[
				-0.70710688829422,
				0,
				0,
				0.7071066498756409
			],
			"translation":[
				0.006474733352661133,
				0.026574954390525818,
				0.0001450181007385254
			]
		},
		{
			"mesh":3,
			"name":"Object_5",
			"rotation":[
				-0.70710688829422,
				0,
				0,
				0.7071066498756409
			],
			"translation":[
				0.20684942603111267,
				0.06492313742637634,
				0.6979568004608154
			]
		},
		{
			"mesh":4,
			"name":"Object_6",
			"rotation":[
				-0.70710688829422,
				0,
				0,
				0.7071066498756409
			],
			"translation":[
				0.05606040358543396,
				0.43136951327323914,
				-0.0067182183265686035
			]
		}
	],
	"materials":[
		{
			"doubleSided":true,
			"name":"lambert16SG",
			"pbrMetallicRoughness":{
				"baseColorFactor":[
					0.8700000047683716,
					0.8600000143051147,
					0.5,
					1
				],
				"metallicFactor":0
			}
		},
		{
			"doubleSided":true,
			"name":"lambert19SG",
			"pbrMetallicRoughness":{
				"baseColorFactor":[
					0.10000000149011612,
					0.3499999940395355,
					0.4000000059604645,
					1
				],
				"metallicFactor":0
			}
		},
		{
			"doubleSided":true,
			"name":"lambert20SG",
			"pbrMetallicRoughness":{
				"baseColorFactor":[
					0.5400000214576721,
					0.5400000214576721,
					0.3100000023841858,
					1
				],
				"metallicFactor":0
			}
		},
		{
			"doubleSided":true,
			"name":"lambert21SG",
			"pbrMetallicRoughness":{
				"baseColorFactor":[
					0.1899999976158142,
					0.6100000143051147,
					0.7099999785423279,
					1
				],
				"metallicFactor":0
			}
		},
		{
			"doubleSided":true,
			"name":"lambert8SG",
			"pbrMetallicRoughness":{
				"baseColorTexture":{
					"index":0
				},
				"metallicFactor":0
			}
		}
	],
	"meshes":[
		{
			"name":"Object_0",
			"primitives":[
				{
					"attributes":{
						"POSITION":0,
						"NORMAL":1,
						"TEXCOORD_0":2
					},
					"indices":3,
					"material":0
				}
			]
		},
		{
			"name":"Object_1",
			"primitives":[
				{
					"attributes":{
						"POSITION":4,
						"NORMAL":5,
						"TEXCOORD_0":6
					},
					"indices":7,
					"material":1
				}
			]
		},
		{
			"name":"Object_2",
			"primitives":[
				{
					"attributes":{
						"POSITION":8,
						"NORMAL":9,
						"TEXCOORD_0":10
					},
					"indices":11,
					"material":2
				}
			]
		},
		{
			"name":"Object_3",
			"primitives":[
				{
					"attributes":{
						"POSITION":12,
						"NORMAL":13,
						"TEXCOORD_0":14
					},
					"indices":15,
					"material":3
				}
			]
		},
		{
			"name":"Object_4",
			"primitives":[
				{
					"attributes":{
						"POSITION":16,
						"NORMAL":17,
						"TEXCOORD_0":18
					},
					"indices":19,
					"material":4
				}
			]
		}
	],
	"textures":[
		{
			"sampler":0,
			"source":0
		}
	],
	"images":[
		{
			"bufferView":20,
			"mimeType":"image/jpeg",
			"name":"lambert8SG_baseColor"
		}
	],
	"accessors":[
		{
			"bufferView":0,
			"componentType":5126,
			"count":9,
			"max":[
				0.34302109479904175,
				0.5104227066040039,
				-3.552713678800501e-15
			],
			"min":[
				-0.3430209755897522,
				-0.5104236602783203,
				-3.552713678800501e-15
			],
			"type":"VEC3"
		},
		{
			"bufferView":1,
			"componentType":5126,
			"count":9,
			"type":"VEC3"
		},
		{
			"bufferView":2,
			"componentType":5126,
			"count":9,
			"type":"VEC2"
		},
		{
			"bufferView":3,
			"componentType":5123,
			"count":24,
			"type":"SCALAR"
		},
		{
			"bufferView":4,
			"componentType":5126,
			"count":60,
			"max":[
				0.5198155045509338,
				0.6216863393783569,
				0.14322654902935028
			],
			"min":[
				-0.4206313192844391,
				-0.7740322351455688,
				-0.009443479590117931
			],
			"type":"VEC3"
		},
		{
			"bufferView":5,
			"componentType":5126,
			"count":60,
			"type":"VEC3"
		},
		{
			"bufferView":6,
			"componentType":5126,
			"count":60,
			"type":"VEC2"
		},
		{
			"bufferView":7,
			"componentType":5123,
			"count":222,
			"type":"SCALAR"
		},
		{
			"bufferView":8,
			"componentType":5126,
			"count":24,
			"max":[
				0.4593517780303955,
				0.6837142109870911,
				2.842170943040401e-14
			],
			"min":[
				-0.45967841148376465,
				-0.6852661967277527,
				2.842170943040401e-14
			],
			"type":"VEC3"
		},
		{
			"bufferView":9,
			"componentType":5126,
			"count":24,
			"type":"VEC3"
		},
		{
			"bufferView":10,
			"componentType":5126,
			"count":24,
			"type":"VEC2"
		},
		{
			"bufferView":11,
			"componentType":5123,
			"count":72,
			"type":"SCALAR"
		},
		{
			"bufferView":12,
			"componentType":5126,
			"count":4,
			"max":[
				0.25557199120521545,
				0,
				0.03420594334602356
			],
			"min":[
				-0.20097193121910095,
				0,
				-0.030870109796524048
			],
			"type":"VEC3"
		},
		{
			"bufferView":13,
			"componentType":5126,
			"count":4,
			"type":"VEC3"
		},
		{
			"bufferView":14,
			"componentType":5126,
			"count":4,
			"type":"VEC2"
		},
		{
			"bufferView":15,
			"componentType":5123,
			"count":6,
			"type":"SCALAR"
		},
		{
			"bufferView":16,
			"componentType":5126,
			"count":410,
			"max":[
				0.4206480383872986,
				0.7150132060050964,
				0.43963536620140076
			],
			"min":[
				-0.5197988152503967,
				-0.7286446690559387,
				-0.4047946035861969
			],
			"type":"VEC3"
		},
		{
			"bufferView":17,
			"componentType":5126,
			"count":410,
			"type":"VEC3"
		},
		{
			"bufferView":18,
			"componentType":5126,
			"count":410,
			"type":"VEC2"
		},
		{
			"bufferView":19,
			"componentType":5123,
			"count":1704,
			"type":"SCALAR"
		}
	],
	"bufferViews":[
		{
			"buffer":0,
			"byteLength":108,
			"byteOffset":0,
			"target":34962
		},
		{
			"buffer":0,
			"byteLength":108,
			"byteOffset":108,
			"target":34962
		},
		{
			"buffer":0,
			"byteLength":72,
			"byteOffset":216,
			"target":34962
		},
		{
			"buffer":0,
			"byteLength":48,
			"byteOffset":288,
			"target":34963
		},
		{
			"buffer":0,
			"byteLength":720,
			"byteOffset":336,
			"target":34962
		},
		{
			"buffer":0,
			"byteLength":720,
			"byteOffset":1056,
			"target":34962
		},
		{
			"buffer":0,
			"byteLength":480,
			"byteOffset":1776,
			"target":34962
		},
		{
			"buffer":0,
			"byteLength":444,
			"byteOffset":2256,
			"target":34963
		},
		{
			"buffer":0,
			"byteLength":288,
			"byteOffset":2700,
			"target":34962
		},
		{
			"buffer":0,
			"byteLength":288,
			"byteOffset":2988,
			"target":34962
		},
		{
			"buffer":0,
			"byteLength":192,
			"byteOffset":3276,
			"target":34962
		},
		{
			"buffer":0,
			"byteLength":144,
			"byteOffset":3468,
			"target":34963
		},
		{
			"buffer":0,
			"byteLength":48,
			"byteOffset":3612,
			"target":34962
		},
		{
			"buffer":0,
			"byteLength":48,
			"byteOffset":3660,
			"target":34962
		},
		{
			"buffer":0,
			"byteLength":32,
			"byteOffset":3708,
			"target":34962
		},
		{
			"buffer":0,
			"byteLength":12,
			"byteOffset":3740,
			"target":34963
		},
		{
			"buffer":0,
			"byteLength":4920,
			"byteOffset":3752,
			"target":34962
		},
		{
			"buffer":0,
			"byteLength":4920,
			"byteOffset":8672,
			"target":34962
		},
		{
			"buffer":0,
			"byteLength":3280,
			"byteOffset":13592,
			"target":34962
		},
		{
			"buffer":0,
			"byteLength":3408,
			"byteOffset":16872,
			"target":34963
		},
		{
			"buffer":0,
			"byteLength":175541,
			"byteOffset":20280
		}
	],
	"samplers":[
		{
			"magFilter":9729,
			"minFilter":9987
		}
	],
	"buffers":[
		{
			"byteLength":195824,
			"uri":"data:application/octet-stream;base64,"
		}
	]
}
